<svg width="32" height="33" viewBox="0 0 32 33" fill="none" xmlns="http://www.w3.org/2000/svg">
<g clip-path="url(#clip0_198_618)">
<path d="M1.33398 1.83331H6.66732L10.2407 19.6866C10.3626 20.3005 10.6965 20.8519 11.184 21.2444C11.6716 21.6368 12.2816 21.8453 12.9073 21.8333H25.8673C26.4931 21.8453 27.1031 21.6368 27.5906 21.2444C28.0781 20.8519 28.4121 20.3005 28.534 19.6866L30.6673 8.49998H8.00065M13.334 28.5C13.334 29.2364 12.737 29.8333 12.0007 29.8333C11.2643 29.8333 10.6673 29.2364 10.6673 28.5C10.6673 27.7636 11.2643 27.1666 12.0007 27.1666C12.737 27.1666 13.334 27.7636 13.334 28.5ZM28.0006 28.5C28.0006 29.2364 27.4037 29.8333 26.6673 29.8333C25.9309 29.8333 25.334 29.2364 25.334 28.5C25.334 27.7636 25.9309 27.1666 26.6673 27.1666C27.4037 27.1666 28.0006 27.7636 28.0006 28.5Z" stroke="#1E1E1E" stroke-width="3" stroke-linecap="round" stroke-linejoin="round"/>
</g>
<defs>
<clipPath id="clip0_198_618">
<rect width="32" height="32" fill="white" transform="translate(0 0.5)"/>
</clipPath>
</defs>
</svg>
